{"title":"Bahar S01E03.720p.HDTV.X264.ARI Greek Subs","uid":15158965,"size":749274269,"categoryP":"video","categoryS":"tv_shows","magnet":"?xt=urn:btih:eeddd00009caabc881c9a8597901c9a1c943d814&amp;dn=Bahar+S01E03.720p.HDTV.X264.ARI+Greek+Subs&amp;tr=udp%3A%2F%2Ftracker.leechers-paradise.org%3A6969&amp;tr=udp%3A%2F%2Fzer0day.ch%3A1337&amp;tr=udp%3A%2F%2Fopen.demonii.com%3A1337&amp;tr=udp%3A%2F%2Ftracker.coppersurfer.tk%3A6969&amp;tr=udp%3A%2F%2Fexodus.desync.com%3A6969","seeders":1,"leechers":0,"uploader":"Aris2015","files":1,"time":1467318512,"description":"General\r\nComplete name               : Bahar S01E03.HDTV.720P.X264.ARI.mp4\r\nFormat                      : MPEG-4\r\nFormat profile              : Base Media\r\nCodec ID                    : isom (isom/iso2/avc1/mp41)\r\nFile size                   : 715 MiB\r\nDuration                    : 46mn 26s\r\nOverall bit rate mode       : Variable\r\nOverall bit rate            : 2 151 Kbps\r\nMovie name                  : Bahar S01E03.720p.HDTV.X264.ARI\r\nPerformer                   : ARI\r\nEncoded date                : UTC 2016-06-29 22:37:31\r\nTagged date                 : UTC 2016-06-29 22:37:31\r\nWriting application         : Lavf57.26.100\r\nCopyright                   : STAR TV\r\n\r\nVideo\r\nID                          : 1\r\nFormat                      : AVC\r\nFormat/Info                 : Advanced Video Codec\r\nFormat profile              :   \r\nFormat settings, CABAC      : Yes\r\nFormat settings, ReFrames   : 8 frames\r\nCodec ID                    : avc1\r\nCodec ID/Info               : Advanced Video Coding\r\nDuration                    : 46mn 26s\r\nBit rate mode               : Variable\r\nBit rate                    : 2 000 Kbps\r\nMaximum bit rate            : 17.5 Mbps\r\nWidth                       : 1 280 pixels\r\nHeight                      : 720 pixels\r\nDisplay aspect ratio        : 16:9\r\nFrame rate mode             : Constant\r\nFrame rate                  : 25.000 fps\r\nColor space                 : YUV\r\nChroma subsampling          : 4:2:0\r\nBit depth                   : 8 bits\r\nScan type                   : Progressive\r\nBits/(Pixel*Frame)          : 0.087\r\nStream size                 : 659 MiB (92%)\r\nWriting library             : x264 core 148 r2665\r\n\r\n\r\nAudio\r\nID                          : 2\r\nFormat                      : AAC\r\nFormat/Info                 : Advanced Audio Codec\r\nFormat profile              : LC\r\nCodec ID                    : 40\r\nDuration                    : 46mn 26s\r\nDuration_LastFrame          : -3ms\r\nBit rate mode               : Constant\r\nBit rate                    : 160 Kbps\r\nChannel(s)                  : 2 channels\r\nChannel positions           : Front: L R\r\nSampling rate               : 48.0 KHz\r\nFrame rate                  : 46.875 fps (1024 spf)\r\nCompression mode            : Lossy\r\nStream size                 : 53.1 MiB (7%)\r\nLanguage                    : Turkish\r\nDefault                     : Yes","torrent":{"xt":"urn:btih:eeddd00009caabc881c9a8597901c9a1c943d814","amp;dn":"Bahar+S01E03.720p.HDTV.X264.ARI+Greek+Subs","amp;tr":["udp%3A%2F%2Ftracker.leechers-paradise.org%3A6969","udp%3A%2F%2Fzer0day.ch%3A1337","udp%3A%2F%2Fopen.demonii.com%3A1337","udp%3A%2F%2Ftracker.coppersurfer.tk%3A6969","udp%3A%2F%2Fexodus.desync.com%3A6969"],"infoHash":"eeddd00009caabc881c9a8597901c9a1c943d814","infoHashBuffer":{"type":"Buffer","data":[238,221,208,0,9,202,171,200,129,201,168,89,121,1,201,161,201,67,216,20]},"announce":[],"urlList":[]}}